<mxfile host="app.diagrams.net" modified="2023-11-03T23:22:48.444Z" agent="Mozilla/5.0 (Macintosh; Intel Mac OS X 10_15_7) AppleWebKit/537.36 (KHTML, like Gecko) Chrome/117.0.0.0 Safari/537.36" etag="F8aXDvE2p4Bas029-2xz" version="21.8.2" type="device">
  <diagram name="Page-1" id="Y_a3e1RW2WTCn04WYOqY">
    <mxGraphModel dx="1433" dy="1833" grid="1" gridSize="10" guides="1" tooltips="1" connect="1" arrows="1" fold="1" page="1" pageScale="1" pageWidth="850" pageHeight="1100" math="0" shadow="0">
      <root>
        <mxCell id="0" />
        <mxCell id="1" parent="0" />
        <mxCell id="APUFKpAU-Lye8vOHfHQG-33" style="edgeStyle=orthogonalEdgeStyle;rounded=0;orthogonalLoop=1;jettySize=auto;html=1;entryX=1;entryY=0.5;entryDx=0;entryDy=0;endArrow=none;endFill=0;" edge="1" parent="1" source="APUFKpAU-Lye8vOHfHQG-1" target="APUFKpAU-Lye8vOHfHQG-24">
          <mxGeometry relative="1" as="geometry">
            <Array as="points">
              <mxPoint x="410" y="285" />
              <mxPoint x="410" y="285" />
            </Array>
          </mxGeometry>
        </mxCell>
        <mxCell id="APUFKpAU-Lye8vOHfHQG-39" style="edgeStyle=orthogonalEdgeStyle;rounded=0;orthogonalLoop=1;jettySize=auto;html=1;entryX=0.5;entryY=1;entryDx=0;entryDy=0;endArrow=none;endFill=0;" edge="1" parent="1" source="APUFKpAU-Lye8vOHfHQG-1" target="APUFKpAU-Lye8vOHfHQG-15">
          <mxGeometry relative="1" as="geometry">
            <Array as="points">
              <mxPoint x="505" y="180" />
              <mxPoint x="240" y="180" />
            </Array>
          </mxGeometry>
        </mxCell>
        <mxCell id="APUFKpAU-Lye8vOHfHQG-104" style="edgeStyle=orthogonalEdgeStyle;rounded=0;orthogonalLoop=1;jettySize=auto;html=1;endArrow=none;endFill=0;" edge="1" parent="1" source="APUFKpAU-Lye8vOHfHQG-1">
          <mxGeometry relative="1" as="geometry">
            <mxPoint x="310" y="230.00000000000023" as="targetPoint" />
          </mxGeometry>
        </mxCell>
        <mxCell id="APUFKpAU-Lye8vOHfHQG-1" value="Customer" style="shape=umlActor;verticalLabelPosition=bottom;verticalAlign=top;html=1;outlineConnect=0;" vertex="1" parent="1">
          <mxGeometry x="490" y="230" width="30" height="60" as="geometry" />
        </mxCell>
        <mxCell id="APUFKpAU-Lye8vOHfHQG-85" style="edgeStyle=orthogonalEdgeStyle;rounded=0;orthogonalLoop=1;jettySize=auto;html=1;entryX=1;entryY=0.5;entryDx=0;entryDy=0;endArrow=none;endFill=0;" edge="1" parent="1" source="APUFKpAU-Lye8vOHfHQG-5" target="APUFKpAU-Lye8vOHfHQG-77">
          <mxGeometry relative="1" as="geometry" />
        </mxCell>
        <mxCell id="APUFKpAU-Lye8vOHfHQG-86" style="edgeStyle=orthogonalEdgeStyle;rounded=0;orthogonalLoop=1;jettySize=auto;html=1;entryX=1;entryY=0.5;entryDx=0;entryDy=0;endArrow=none;endFill=0;" edge="1" parent="1" source="APUFKpAU-Lye8vOHfHQG-5" target="APUFKpAU-Lye8vOHfHQG-79">
          <mxGeometry relative="1" as="geometry" />
        </mxCell>
        <mxCell id="APUFKpAU-Lye8vOHfHQG-87" style="edgeStyle=orthogonalEdgeStyle;rounded=0;orthogonalLoop=1;jettySize=auto;html=1;entryX=0.5;entryY=1;entryDx=0;entryDy=0;endArrow=none;endFill=0;" edge="1" parent="1" source="APUFKpAU-Lye8vOHfHQG-5" target="APUFKpAU-Lye8vOHfHQG-75">
          <mxGeometry relative="1" as="geometry" />
        </mxCell>
        <mxCell id="APUFKpAU-Lye8vOHfHQG-91" style="edgeStyle=orthogonalEdgeStyle;rounded=0;orthogonalLoop=1;jettySize=auto;html=1;exitX=0.5;exitY=0;exitDx=0;exitDy=0;exitPerimeter=0;entryX=0.5;entryY=1;entryDx=0;entryDy=0;endArrow=none;endFill=0;" edge="1" parent="1" source="APUFKpAU-Lye8vOHfHQG-5" target="APUFKpAU-Lye8vOHfHQG-78">
          <mxGeometry relative="1" as="geometry" />
        </mxCell>
        <mxCell id="APUFKpAU-Lye8vOHfHQG-5" value="Admin" style="shape=umlActor;verticalLabelPosition=bottom;verticalAlign=top;html=1;outlineConnect=0;" vertex="1" parent="1">
          <mxGeometry x="230" y="450" width="30" height="60" as="geometry" />
        </mxCell>
        <mxCell id="APUFKpAU-Lye8vOHfHQG-69" style="edgeStyle=orthogonalEdgeStyle;rounded=0;orthogonalLoop=1;jettySize=auto;html=1;entryX=0.5;entryY=0;entryDx=0;entryDy=0;endArrow=none;endFill=0;" edge="1" parent="1" source="APUFKpAU-Lye8vOHfHQG-7" target="APUFKpAU-Lye8vOHfHQG-20">
          <mxGeometry relative="1" as="geometry" />
        </mxCell>
        <mxCell id="APUFKpAU-Lye8vOHfHQG-7" value="Payment Gateway" style="shape=umlActor;verticalLabelPosition=bottom;verticalAlign=top;html=1;outlineConnect=0;" vertex="1" parent="1">
          <mxGeometry x="650" y="10" width="30" height="60" as="geometry" />
        </mxCell>
        <mxCell id="APUFKpAU-Lye8vOHfHQG-67" style="edgeStyle=orthogonalEdgeStyle;rounded=0;orthogonalLoop=1;jettySize=auto;html=1;exitX=0.5;exitY=0.5;exitDx=0;exitDy=0;exitPerimeter=0;entryX=0.5;entryY=0;entryDx=0;entryDy=0;endArrow=none;endFill=0;" edge="1" parent="1" source="APUFKpAU-Lye8vOHfHQG-9" target="APUFKpAU-Lye8vOHfHQG-15">
          <mxGeometry relative="1" as="geometry" />
        </mxCell>
        <mxCell id="APUFKpAU-Lye8vOHfHQG-9" value="Tourism Agent" style="shape=umlActor;verticalLabelPosition=bottom;verticalAlign=top;html=1;outlineConnect=0;" vertex="1" parent="1">
          <mxGeometry x="160" y="20" width="30" height="60" as="geometry" />
        </mxCell>
        <mxCell id="APUFKpAU-Lye8vOHfHQG-94" style="edgeStyle=orthogonalEdgeStyle;rounded=0;orthogonalLoop=1;jettySize=auto;html=1;exitX=0.25;exitY=0.1;exitDx=0;exitDy=0;exitPerimeter=0;entryX=1;entryY=0.5;entryDx=0;entryDy=0;endArrow=none;endFill=0;" edge="1" parent="1" source="APUFKpAU-Lye8vOHfHQG-10" target="APUFKpAU-Lye8vOHfHQG-93">
          <mxGeometry relative="1" as="geometry" />
        </mxCell>
        <mxCell id="APUFKpAU-Lye8vOHfHQG-95" style="edgeStyle=orthogonalEdgeStyle;rounded=0;orthogonalLoop=1;jettySize=auto;html=1;exitX=0.5;exitY=0;exitDx=0;exitDy=0;exitPerimeter=0;endArrow=none;endFill=0;" edge="1" parent="1" source="APUFKpAU-Lye8vOHfHQG-10" target="APUFKpAU-Lye8vOHfHQG-92">
          <mxGeometry relative="1" as="geometry" />
        </mxCell>
        <mxCell id="APUFKpAU-Lye8vOHfHQG-10" value="Airline Agent" style="shape=umlActor;verticalLabelPosition=bottom;verticalAlign=top;html=1;outlineConnect=0;" vertex="1" parent="1">
          <mxGeometry x="750" y="430" width="30" height="60" as="geometry" />
        </mxCell>
        <mxCell id="APUFKpAU-Lye8vOHfHQG-70" style="edgeStyle=orthogonalEdgeStyle;rounded=0;orthogonalLoop=1;jettySize=auto;html=1;entryX=0.5;entryY=0;entryDx=0;entryDy=0;endArrow=none;endFill=0;" edge="1" parent="1" source="APUFKpAU-Lye8vOHfHQG-11" target="APUFKpAU-Lye8vOHfHQG-21">
          <mxGeometry relative="1" as="geometry" />
        </mxCell>
        <mxCell id="APUFKpAU-Lye8vOHfHQG-99" style="edgeStyle=orthogonalEdgeStyle;rounded=0;orthogonalLoop=1;jettySize=auto;html=1;entryX=0.5;entryY=0;entryDx=0;entryDy=0;endArrow=none;endFill=0;" edge="1" parent="1">
          <mxGeometry relative="1" as="geometry">
            <mxPoint x="78" y="-30.000000000000227" as="sourcePoint" />
            <mxPoint x="1013" y="50.00000000000023" as="targetPoint" />
            <Array as="points">
              <mxPoint x="1008" y="-30" />
              <mxPoint x="1008" y="23" />
            </Array>
          </mxGeometry>
        </mxCell>
        <mxCell id="APUFKpAU-Lye8vOHfHQG-103" style="edgeStyle=orthogonalEdgeStyle;rounded=0;orthogonalLoop=1;jettySize=auto;html=1;endArrow=none;endFill=0;" edge="1" parent="1" source="APUFKpAU-Lye8vOHfHQG-11" target="APUFKpAU-Lye8vOHfHQG-25">
          <mxGeometry relative="1" as="geometry">
            <Array as="points">
              <mxPoint x="65" y="120" />
              <mxPoint x="160" y="120" />
              <mxPoint x="160" y="190" />
              <mxPoint x="255" y="190" />
            </Array>
          </mxGeometry>
        </mxCell>
        <mxCell id="APUFKpAU-Lye8vOHfHQG-11" value="Communication System" style="shape=umlActor;verticalLabelPosition=bottom;verticalAlign=top;html=1;outlineConnect=0;" vertex="1" parent="1">
          <mxGeometry x="50" y="-40" width="30" height="60" as="geometry" />
        </mxCell>
        <mxCell id="APUFKpAU-Lye8vOHfHQG-12" value="ChatBot" style="shape=umlActor;verticalLabelPosition=bottom;verticalAlign=top;html=1;outlineConnect=0;" vertex="1" parent="1">
          <mxGeometry x="115" y="820" width="30" height="60" as="geometry" />
        </mxCell>
        <mxCell id="APUFKpAU-Lye8vOHfHQG-110" style="edgeStyle=orthogonalEdgeStyle;rounded=0;orthogonalLoop=1;jettySize=auto;html=1;entryX=0.5;entryY=1;entryDx=0;entryDy=0;endArrow=none;endFill=0;" edge="1" parent="1" source="APUFKpAU-Lye8vOHfHQG-13" target="APUFKpAU-Lye8vOHfHQG-107">
          <mxGeometry relative="1" as="geometry" />
        </mxCell>
        <mxCell id="APUFKpAU-Lye8vOHfHQG-112" style="edgeStyle=orthogonalEdgeStyle;rounded=0;orthogonalLoop=1;jettySize=auto;html=1;entryX=0.5;entryY=1;entryDx=0;entryDy=0;endArrow=none;endFill=0;" edge="1" parent="1" source="APUFKpAU-Lye8vOHfHQG-13" target="APUFKpAU-Lye8vOHfHQG-106">
          <mxGeometry relative="1" as="geometry" />
        </mxCell>
        <mxCell id="APUFKpAU-Lye8vOHfHQG-113" style="edgeStyle=orthogonalEdgeStyle;rounded=0;orthogonalLoop=1;jettySize=auto;html=1;entryX=1;entryY=1;entryDx=0;entryDy=0;endArrow=none;endFill=0;" edge="1" parent="1" source="APUFKpAU-Lye8vOHfHQG-13" target="APUFKpAU-Lye8vOHfHQG-108">
          <mxGeometry relative="1" as="geometry" />
        </mxCell>
        <mxCell id="APUFKpAU-Lye8vOHfHQG-114" style="edgeStyle=orthogonalEdgeStyle;rounded=0;orthogonalLoop=1;jettySize=auto;html=1;entryX=1;entryY=0.5;entryDx=0;entryDy=0;endArrow=none;endFill=0;" edge="1" parent="1" source="APUFKpAU-Lye8vOHfHQG-13" target="APUFKpAU-Lye8vOHfHQG-109">
          <mxGeometry relative="1" as="geometry" />
        </mxCell>
        <mxCell id="APUFKpAU-Lye8vOHfHQG-13" value="Database" style="shape=umlActor;verticalLabelPosition=bottom;verticalAlign=top;html=1;outlineConnect=0;" vertex="1" parent="1">
          <mxGeometry x="975" y="300" width="30" height="60" as="geometry" />
        </mxCell>
        <mxCell id="APUFKpAU-Lye8vOHfHQG-51" style="edgeStyle=orthogonalEdgeStyle;rounded=0;orthogonalLoop=1;jettySize=auto;html=1;exitX=1;exitY=0.5;exitDx=0;exitDy=0;entryX=0;entryY=0.5;entryDx=0;entryDy=0;dashed=1;" edge="1" parent="1" source="APUFKpAU-Lye8vOHfHQG-15" target="APUFKpAU-Lye8vOHfHQG-16">
          <mxGeometry relative="1" as="geometry" />
        </mxCell>
        <mxCell id="APUFKpAU-Lye8vOHfHQG-15" value="Browse Available Flights" style="ellipse;whiteSpace=wrap;html=1;" vertex="1" parent="1">
          <mxGeometry x="200" y="97.5" width="80" height="50" as="geometry" />
        </mxCell>
        <mxCell id="APUFKpAU-Lye8vOHfHQG-50" style="edgeStyle=orthogonalEdgeStyle;rounded=0;orthogonalLoop=1;jettySize=auto;html=1;exitX=1;exitY=0.5;exitDx=0;exitDy=0;entryX=0;entryY=0.5;entryDx=0;entryDy=0;dashed=1;" edge="1" parent="1" source="APUFKpAU-Lye8vOHfHQG-16" target="APUFKpAU-Lye8vOHfHQG-17">
          <mxGeometry relative="1" as="geometry" />
        </mxCell>
        <mxCell id="APUFKpAU-Lye8vOHfHQG-16" value="Select Desired Flight" style="ellipse;whiteSpace=wrap;html=1;" vertex="1" parent="1">
          <mxGeometry x="310" y="102.5" width="90" height="40" as="geometry" />
        </mxCell>
        <mxCell id="APUFKpAU-Lye8vOHfHQG-60" style="edgeStyle=orthogonalEdgeStyle;rounded=0;orthogonalLoop=1;jettySize=auto;html=1;exitX=1;exitY=0.5;exitDx=0;exitDy=0;entryX=0;entryY=0.5;entryDx=0;entryDy=0;dashed=1;" edge="1" parent="1" source="APUFKpAU-Lye8vOHfHQG-17" target="APUFKpAU-Lye8vOHfHQG-59">
          <mxGeometry relative="1" as="geometry" />
        </mxCell>
        <mxCell id="APUFKpAU-Lye8vOHfHQG-17" value="View Seat Map" style="ellipse;whiteSpace=wrap;html=1;" vertex="1" parent="1">
          <mxGeometry x="440" y="102.5" width="70" height="40" as="geometry" />
        </mxCell>
        <mxCell id="APUFKpAU-Lye8vOHfHQG-48" style="edgeStyle=orthogonalEdgeStyle;rounded=0;orthogonalLoop=1;jettySize=auto;html=1;exitX=1;exitY=0.5;exitDx=0;exitDy=0;entryX=0;entryY=0.5;entryDx=0;entryDy=0;dashed=1;" edge="1" parent="1" source="APUFKpAU-Lye8vOHfHQG-20" target="APUFKpAU-Lye8vOHfHQG-21">
          <mxGeometry relative="1" as="geometry" />
        </mxCell>
        <mxCell id="APUFKpAU-Lye8vOHfHQG-20" value="Make Payment" style="ellipse;whiteSpace=wrap;html=1;" vertex="1" parent="1">
          <mxGeometry x="700" y="102.5" width="60" height="40" as="geometry" />
        </mxCell>
        <mxCell id="APUFKpAU-Lye8vOHfHQG-21" value="Receive Payment Receipt via Email" style="ellipse;whiteSpace=wrap;html=1;" vertex="1" parent="1">
          <mxGeometry x="800" y="17.5" width="90" height="65" as="geometry" />
        </mxCell>
        <mxCell id="APUFKpAU-Lye8vOHfHQG-22" value="Receive E-Ticket via Email" style="ellipse;whiteSpace=wrap;html=1;" vertex="1" parent="1">
          <mxGeometry x="964" y="50" width="90" height="60" as="geometry" />
        </mxCell>
        <mxCell id="APUFKpAU-Lye8vOHfHQG-56" style="edgeStyle=orthogonalEdgeStyle;rounded=0;orthogonalLoop=1;jettySize=auto;html=1;exitX=0.5;exitY=0;exitDx=0;exitDy=0;entryX=0.5;entryY=1;entryDx=0;entryDy=0;dashed=1;" edge="1" parent="1" source="APUFKpAU-Lye8vOHfHQG-23" target="APUFKpAU-Lye8vOHfHQG-20">
          <mxGeometry relative="1" as="geometry" />
        </mxCell>
        <mxCell id="APUFKpAU-Lye8vOHfHQG-57" value="&amp;lt;&amp;lt;extends&amp;gt;&amp;gt;" style="edgeLabel;html=1;align=center;verticalAlign=middle;resizable=0;points=[];" vertex="1" connectable="0" parent="APUFKpAU-Lye8vOHfHQG-56">
          <mxGeometry x="0.0317" y="1" relative="1" as="geometry">
            <mxPoint as="offset" />
          </mxGeometry>
        </mxCell>
        <mxCell id="APUFKpAU-Lye8vOHfHQG-23" value="Cancel Flight" style="ellipse;whiteSpace=wrap;html=1;" vertex="1" parent="1">
          <mxGeometry x="700" y="200" width="60" height="40" as="geometry" />
        </mxCell>
        <mxCell id="APUFKpAU-Lye8vOHfHQG-24" value="Apply for Company&#39;s Credit Card" style="ellipse;whiteSpace=wrap;html=1;fontStyle=1" vertex="1" parent="1">
          <mxGeometry x="120" y="260" width="110" height="50" as="geometry" />
        </mxCell>
        <mxCell id="APUFKpAU-Lye8vOHfHQG-25" value="Receive Monthly Promotions" style="ellipse;whiteSpace=wrap;html=1;fontStyle=0" vertex="1" parent="1">
          <mxGeometry x="205" y="210" width="100" height="40" as="geometry" />
        </mxCell>
        <mxCell id="APUFKpAU-Lye8vOHfHQG-101" style="edgeStyle=orthogonalEdgeStyle;rounded=0;orthogonalLoop=1;jettySize=auto;html=1;exitX=1;exitY=0.5;exitDx=0;exitDy=0;entryX=0;entryY=0.5;entryDx=0;entryDy=0;dashed=1;" edge="1" parent="1" source="APUFKpAU-Lye8vOHfHQG-26" target="APUFKpAU-Lye8vOHfHQG-25">
          <mxGeometry relative="1" as="geometry" />
        </mxCell>
        <mxCell id="APUFKpAU-Lye8vOHfHQG-102" value="&amp;lt;&amp;lt;extends&amp;gt;&amp;gt;" style="edgeLabel;html=1;align=center;verticalAlign=middle;resizable=0;points=[];" vertex="1" connectable="0" parent="APUFKpAU-Lye8vOHfHQG-101">
          <mxGeometry x="-0.0507" relative="1" as="geometry">
            <mxPoint x="-5" y="-10" as="offset" />
          </mxGeometry>
        </mxCell>
        <mxCell id="APUFKpAU-Lye8vOHfHQG-26" value="Register for Membership" style="ellipse;whiteSpace=wrap;html=1;fontStyle=1" vertex="1" parent="1">
          <mxGeometry x="30" y="210" width="100" height="40" as="geometry" />
        </mxCell>
        <mxCell id="APUFKpAU-Lye8vOHfHQG-61" style="edgeStyle=orthogonalEdgeStyle;rounded=0;orthogonalLoop=1;jettySize=auto;html=1;exitX=1;exitY=0.5;exitDx=0;exitDy=0;entryX=0;entryY=0.5;entryDx=0;entryDy=0;dashed=1;" edge="1" parent="1" source="APUFKpAU-Lye8vOHfHQG-59" target="APUFKpAU-Lye8vOHfHQG-20">
          <mxGeometry relative="1" as="geometry" />
        </mxCell>
        <mxCell id="APUFKpAU-Lye8vOHfHQG-59" value="Apply for Add-ons" style="ellipse;whiteSpace=wrap;html=1;" vertex="1" parent="1">
          <mxGeometry x="580" y="97.5" width="60" height="50" as="geometry" />
        </mxCell>
        <mxCell id="APUFKpAU-Lye8vOHfHQG-73" value="View Flights by Date" style="ellipse;whiteSpace=wrap;html=1;fontStyle=0" vertex="1" parent="1">
          <mxGeometry x="465" y="340" width="80" height="40" as="geometry" />
        </mxCell>
        <mxCell id="APUFKpAU-Lye8vOHfHQG-74" value="View Crew List for a Flight" style="ellipse;whiteSpace=wrap;html=1;fontStyle=0" vertex="1" parent="1">
          <mxGeometry x="295" y="320" width="90" height="50" as="geometry" />
        </mxCell>
        <mxCell id="APUFKpAU-Lye8vOHfHQG-88" style="edgeStyle=orthogonalEdgeStyle;rounded=0;orthogonalLoop=1;jettySize=auto;html=1;exitX=0.5;exitY=0;exitDx=0;exitDy=0;entryX=0.5;entryY=1;entryDx=0;entryDy=0;dashed=1;" edge="1" parent="1" source="APUFKpAU-Lye8vOHfHQG-75" target="APUFKpAU-Lye8vOHfHQG-74">
          <mxGeometry relative="1" as="geometry" />
        </mxCell>
        <mxCell id="APUFKpAU-Lye8vOHfHQG-89" style="edgeStyle=orthogonalEdgeStyle;rounded=0;orthogonalLoop=1;jettySize=auto;html=1;exitX=1;exitY=0;exitDx=0;exitDy=0;entryX=0.5;entryY=1;entryDx=0;entryDy=0;dashed=1;" edge="1" parent="1" source="APUFKpAU-Lye8vOHfHQG-75" target="APUFKpAU-Lye8vOHfHQG-73">
          <mxGeometry relative="1" as="geometry" />
        </mxCell>
        <mxCell id="APUFKpAU-Lye8vOHfHQG-90" style="edgeStyle=orthogonalEdgeStyle;rounded=0;orthogonalLoop=1;jettySize=auto;html=1;exitX=1;exitY=1;exitDx=0;exitDy=0;entryX=0.5;entryY=0;entryDx=0;entryDy=0;dashed=1;" edge="1" parent="1" source="APUFKpAU-Lye8vOHfHQG-75" target="APUFKpAU-Lye8vOHfHQG-81">
          <mxGeometry relative="1" as="geometry" />
        </mxCell>
        <mxCell id="APUFKpAU-Lye8vOHfHQG-96" style="edgeStyle=orthogonalEdgeStyle;rounded=0;orthogonalLoop=1;jettySize=auto;html=1;exitX=1;exitY=0.5;exitDx=0;exitDy=0;entryX=0;entryY=0.5;entryDx=0;entryDy=0;dashed=1;" edge="1" parent="1" source="APUFKpAU-Lye8vOHfHQG-75" target="APUFKpAU-Lye8vOHfHQG-93">
          <mxGeometry relative="1" as="geometry">
            <Array as="points">
              <mxPoint x="390" y="470" />
              <mxPoint x="480" y="470" />
              <mxPoint x="480" y="505" />
            </Array>
          </mxGeometry>
        </mxCell>
        <mxCell id="APUFKpAU-Lye8vOHfHQG-75" value="Manage Flight Information" style="ellipse;whiteSpace=wrap;html=1;fontStyle=0" vertex="1" parent="1">
          <mxGeometry x="290" y="410" width="100" height="40" as="geometry" />
        </mxCell>
        <mxCell id="APUFKpAU-Lye8vOHfHQG-76" value="Browse Aircraft Inventory" style="ellipse;whiteSpace=wrap;html=1;fontStyle=0" vertex="1" parent="1">
          <mxGeometry x="20" y="350" width="100" height="40" as="geometry" />
        </mxCell>
        <mxCell id="APUFKpAU-Lye8vOHfHQG-77" value="Manage Crew" style="ellipse;whiteSpace=wrap;html=1;fontStyle=0" vertex="1" parent="1">
          <mxGeometry x="60" y="430" width="60" height="40" as="geometry" />
        </mxCell>
        <mxCell id="APUFKpAU-Lye8vOHfHQG-78" value="Manage Aircraft" style="ellipse;whiteSpace=wrap;html=1;fontStyle=0" vertex="1" parent="1">
          <mxGeometry x="190" y="370" width="60" height="40" as="geometry" />
        </mxCell>
        <mxCell id="APUFKpAU-Lye8vOHfHQG-79" value="Print Registered User List" style="ellipse;whiteSpace=wrap;html=1;fontStyle=0" vertex="1" parent="1">
          <mxGeometry x="50" y="510" width="100" height="40" as="geometry" />
        </mxCell>
        <mxCell id="APUFKpAU-Lye8vOHfHQG-81" value="Manage Flight Destination" style="ellipse;whiteSpace=wrap;html=1;fontStyle=0" vertex="1" parent="1">
          <mxGeometry x="375" y="530" width="100" height="40" as="geometry" />
        </mxCell>
        <mxCell id="APUFKpAU-Lye8vOHfHQG-84" style="edgeStyle=orthogonalEdgeStyle;rounded=0;orthogonalLoop=1;jettySize=auto;html=1;exitX=0;exitY=0;exitDx=0;exitDy=0;entryX=0.991;entryY=0.643;entryDx=0;entryDy=0;entryPerimeter=0;dashed=1;" edge="1" parent="1" source="APUFKpAU-Lye8vOHfHQG-78" target="APUFKpAU-Lye8vOHfHQG-76">
          <mxGeometry relative="1" as="geometry" />
        </mxCell>
        <mxCell id="APUFKpAU-Lye8vOHfHQG-92" value="View Flight Passenger List" style="ellipse;whiteSpace=wrap;html=1;fontStyle=0" vertex="1" parent="1">
          <mxGeometry x="660" y="330" width="100" height="40" as="geometry" />
        </mxCell>
        <mxCell id="APUFKpAU-Lye8vOHfHQG-93" value="Browse and Manage Reservations" style="ellipse;whiteSpace=wrap;html=1;fontStyle=0" vertex="1" parent="1">
          <mxGeometry x="570" y="480" width="100" height="50" as="geometry" />
        </mxCell>
        <mxCell id="APUFKpAU-Lye8vOHfHQG-97" style="edgeStyle=orthogonalEdgeStyle;rounded=0;orthogonalLoop=1;jettySize=auto;html=1;exitX=1;exitY=0.5;exitDx=0;exitDy=0;entryX=0.082;entryY=0.93;entryDx=0;entryDy=0;entryPerimeter=0;dashed=1;" edge="1" parent="1" source="APUFKpAU-Lye8vOHfHQG-75" target="APUFKpAU-Lye8vOHfHQG-92">
          <mxGeometry relative="1" as="geometry" />
        </mxCell>
        <mxCell id="APUFKpAU-Lye8vOHfHQG-98" style="edgeStyle=orthogonalEdgeStyle;rounded=0;orthogonalLoop=1;jettySize=auto;html=1;exitX=1;exitY=0.5;exitDx=0;exitDy=0;entryX=0.009;entryY=0.408;entryDx=0;entryDy=0;entryPerimeter=0;dashed=1;" edge="1" parent="1" source="APUFKpAU-Lye8vOHfHQG-21" target="APUFKpAU-Lye8vOHfHQG-22">
          <mxGeometry relative="1" as="geometry" />
        </mxCell>
        <mxCell id="APUFKpAU-Lye8vOHfHQG-106" value="Record Flight Information" style="ellipse;whiteSpace=wrap;html=1;fontStyle=0" vertex="1" parent="1">
          <mxGeometry x="1064" y="270" width="100" height="40" as="geometry" />
        </mxCell>
        <mxCell id="APUFKpAU-Lye8vOHfHQG-107" value="Record Aircraft Inventory" style="ellipse;whiteSpace=wrap;html=1;fontStyle=0" vertex="1" parent="1">
          <mxGeometry x="940" y="200" width="100" height="40" as="geometry" />
        </mxCell>
        <mxCell id="APUFKpAU-Lye8vOHfHQG-108" value="Record Employees" style="ellipse;whiteSpace=wrap;html=1;fontStyle=0" vertex="1" parent="1">
          <mxGeometry x="841" y="250" width="66" height="50" as="geometry" />
        </mxCell>
        <mxCell id="APUFKpAU-Lye8vOHfHQG-109" value="Record Customers" style="ellipse;whiteSpace=wrap;html=1;fontStyle=0" vertex="1" parent="1">
          <mxGeometry x="824" y="370" width="100" height="40" as="geometry" />
        </mxCell>
      </root>
    </mxGraphModel>
  </diagram>
</mxfile>
